# xmcd CD database file
#
# Track frame offsets:
#	150
#	21677
#	40375
#	55552
#	78587
#	103090
#	122537
#	143357
#	159647
#	182042
#
# Disc length: 2703 seconds
#
# Revision: 0
# Processed by: cddbd v1.5.1PL0 Copyright (c) Steve Scherf et al.
# Submitted via: CDex 1.51
#
DISCID=800a8d0a
DTITLE=水越恵子 - Sepia
DYEAR=1900
DGENRE=JPop
TTITLE0=哀しみが終わらない
TTITLE1=Past Love
TTITLE2=一人にさせて
TTITLE3=夕暮れからの恋人たちへ
TTITLE4=Room #602
TTITLE5=ベスト　フレンド
TTITLE6=ボンベイ慕情
TTITLE7=Sunset Lover
TTITLE8=泣きたい気持ち
TTITLE9=ミラクルタウンへ　〜幸せを戻すために〜
EXTD=
EXTT0=
EXTT1=
EXTT2=
EXTT3=
EXTT4=
EXTT5=
EXTT6=
EXTT7=
EXTT8=
EXTT9=
PLAYORDER=
